<svg xmlns="http://www.w3.org/2000/svg" aria-hidden="true" style="position:absolute;width:0;height:0;overflow:hidden">
  <defs>
    <symbol id="icon-attach-file" viewBox="0 0 32 32">
      <path fill="#fff" d="M22.573 22.794c.001 1.777.002 3.99-.774 5.801-.965 2.25-2.903 3.39-5.758 3.39-3.206-.001-6.441-2.725-6.441-8.811V6.061c0-3.334 2.54-6.047 5.66-6.047 2.738 0 4.966 2.376 4.966 5.297V18.89c0 2.145-1.643 3.889-3.664 3.889s-3.664-1.745-3.664-3.889l-.107-11.632a.887.887 0 0 1 .878-.895h.009c.486 0 .881.391.886.877l.107 11.639c0 1.175.848 2.125 1.891 2.125s1.891-.95 1.891-2.117V5.309c0-1.943-1.433-3.525-3.193-3.525-2.143 0-3.888 1.919-3.888 4.275v17.113c0 4.862 2.344 7.038 4.668 7.038 2.809 0 3.702-1.323 4.129-2.317.634-1.476.633-3.401.632-5.101v-.206l.063-15.638a.886.886 0 0 1 .886-.882h.004c.49.002.885.4.883.89l-.063 15.634-.001.202z" style="fill:var(--color1, #fff)"/>
    </symbol>
    <symbol id="icon-logo" viewBox="0 0 32 32">
      <path fill="#fff" d="M16 0c8.837 0 16 7.163 16 16s-7.163 16-16 16S0 24.837 0 16 7.163 0 16 0z" style="fill:var(--color1, #fff)"/>
      <path fill="#1d1760" d="M15.733 20.267a4.455 4.455 0 0 1-2.091-.497 3.913 3.913 0 0 1-1.493-1.381c-.361-.589-.541-1.289-.541-2.099v-5.617c0-.196-.05-.374-.149-.534s-.23-.289-.392-.387c-.162-.098-.342-.147-.541-.147s-.38.049-.541.147a1.17 1.17 0 0 0-.392.387 1.1 1.1 0 0 0-.131.534v9.374H6.401v-9.153c0-.774.174-1.455.523-2.044a3.917 3.917 0 0 1 1.475-1.4c.635-.344 1.344-.516 2.128-.516.796 0 1.506.172 2.128.516s1.114.81 1.475 1.4c.361.589.541 1.271.541 2.044v5.617c0 .209.05.393.149.552s.224.289.373.387c.162.086.336.129.523.129.199 0 .38-.043.541-.129.174-.098.311-.227.411-.387s.149-.344.149-.552v-5.617c0-.774.18-1.455.541-2.044s.852-1.056 1.475-1.4a4.355 4.355 0 0 1 2.109-.516c.796 0 1.5.172 2.109.516.622.344 1.114.81 1.475 1.4s.541 1.271.541 2.044v9.153h-3.061v-9.392a.907.907 0 0 0-.149-.516c-.087-.16-.212-.289-.373-.387s-.342-.147-.541-.147a1.087 1.087 0 0 0-.933.534.894.894 0 0 0-.149.516v5.635c0 .81-.187 1.51-.56 2.099s-.871 1.05-1.493 1.381a4.342 4.342 0 0 1-2.072.497z" style="fill:var(--color2, #1d1760)"/>
      <path fill="#251b92" d="m6.4 25.067 1.404-3.319c.063-.143.149-.248.26-.315s.238-.1.383-.1a.72.72 0 0 1 .383.1.597.597 0 0 1 .26.309l1.41 3.324h-.619l-.36-.886H7.362l-.366.886H6.4zm1.138-1.332h1.811l-.737-1.819c-.02-.045-.041-.08-.065-.105s-.057-.037-.1-.037c-.039 0-.071.012-.094.037s-.043.059-.059.105l-.755 1.819zM11.759 25.067v-3.67h.566v1.652h1.074c.165 0 .315-.026.448-.079a.737.737 0 0 0 .324-.241.61.61 0 0 0 .124-.383l.006-.949h.56v.944c0 .241-.069.451-.206.629-.138.175-.32.308-.549.398l.537 1.091a.42.42 0 0 0 .1.126.315.315 0 0 0 .165.037h.295v.446h-.383a.84.84 0 0 1-.431-.1.733.733 0 0 1-.26-.288l-.59-1.195-.136.01H12.323v1.573h-.566zM16.648 25.067v-3.67h.566v1.652h1.074c.165 0 .315-.026.448-.079a.737.737 0 0 0 .324-.241.61.61 0 0 0 .124-.383l.006-.949h.56v.944c0 .241-.069.451-.206.629-.138.175-.32.308-.549.398l.537 1.091a.42.42 0 0 0 .1.126.315.315 0 0 0 .165.037h.295v.446h-.383a.84.84 0 0 1-.431-.1.733.733 0 0 1-.26-.288l-.59-1.195-.136.01H17.212v1.573h-.566zM20.967 25.067l1.404-3.319c.063-.143.149-.248.26-.315s.238-.1.383-.1c.145 0 .273.033.383.1a.597.597 0 0 1 .26.309l1.41 3.324h-.619l-.36-.886h-2.159l-.366.886h-.596zm1.139-1.332h1.811l-.737-1.819c-.02-.045-.041-.08-.065-.105s-.057-.037-.1-.037c-.039 0-.071.012-.094.037s-.043.059-.059.105l-.755 1.819z" style="fill:var(--color3, #251b92)"/>
    </symbol>
    <symbol id="icon-arrow-up" viewBox="0 0 32 32">
      <path fill="#fff" d="M16 0c8.837 0 16 7.163 16 16s-7.163 16-16 16S0 24.837 0 16 7.163 0 16 0zm.768 6.142a1.6 1.6 0 0 0-2.264 0L8.322 12.33a1.6 1.6 0 1 0 2.264 2.262l3.45-3.454V24a1.6 1.6 0 1 0 3.2 0V11.138l3.45 3.454a1.6 1.6 0 1 0 2.264-2.262l-6.182-6.189z" style="fill:var(--color1, #fff)"/>
    </symbol>
  </defs>
</svg>
